<svg id="visual" viewBox="0 0 900 600" width="900" height="600" xmlns="http://www.w3.org/2000/svg" xmlns:xlink="http://www.w3.org/1999/xlink" version="1.1"><rect x="0" y="0" width="900" height="600" fill="#acd1ee"></rect><path d="M0 326L21.5 327.7C43 329.3 86 332.7 128.8 331.3C171.7 330 214.3 324 257.2 330.7C300 337.3 343 356.7 385.8 368.3C428.7 380 471.3 384 514.2 380.8C557 377.7 600 367.3 642.8 371.5C685.7 375.7 728.3 394.3 771.2 392.3C814 390.3 857 367.7 878.5 356.3L900 345L900 601L878.5 601C857 601 814 601 771.2 601C728.3 601 685.7 601 642.8 601C600 601 557 601 514.2 601C471.3 601 428.7 601 385.8 601C343 601 300 601 257.2 601C214.3 601 171.7 601 128.8 601C86 601 43 601 21.5 601L0 601Z" fill="#88bfee"></path><path d="M0 429L21.5 426C43 423 86 417 128.8 408.5C171.7 400 214.3 389 257.2 381.8C300 374.7 343 371.3 385.8 368C428.7 364.7 471.3 361.3 514.2 370.8C557 380.3 600 402.7 642.8 411.7C685.7 420.7 728.3 416.3 771.2 413.8C814 411.3 857 410.7 878.5 410.3L900 410L900 601L878.5 601C857 601 814 601 771.2 601C728.3 601 685.7 601 642.8 601C600 601 557 601 514.2 601C471.3 601 428.7 601 385.8 601C343 601 300 601 257.2 601C214.3 601 171.7 601 128.8 601C86 601 43 601 21.5 601L0 601Z" fill="#50a6f7"></path><path d="M0 426L21.5 434C43 442 86 458 128.8 462C171.7 466 214.3 458 257.2 452.5C300 447 343 444 385.8 451.3C428.7 458.7 471.3 476.3 514.2 482.3C557 488.3 600 482.7 642.8 475.7C685.7 468.7 728.3 460.3 771.2 449.5C814 438.7 857 425.3 878.5 418.7L900 412L900 601L878.5 601C857 601 814 601 771.2 601C728.3 601 685.7 601 642.8 601C600 601 557 601 514.2 601C471.3 601 428.7 601 385.8 601C343 601 300 601 257.2 601C214.3 601 171.7 601 128.8 601C86 601 43 601 21.5 601L0 601Z" fill="#008afd"></path><path d="M0 471L21.5 476.2C43 481.3 86 491.7 128.8 501.7C171.7 511.7 214.3 521.3 257.2 518C300 514.7 343 498.3 385.8 494.5C428.7 490.7 471.3 499.3 514.2 496C557 492.7 600 477.3 642.8 474.7C685.7 472 728.3 482 771.2 483.7C814 485.3 857 478.7 878.5 475.3L900 472L900 601L878.5 601C857 601 814 601 771.2 601C728.3 601 685.7 601 642.8 601C600 601 557 601 514.2 601C471.3 601 428.7 601 385.8 601C343 601 300 601 257.2 601C214.3 601 171.7 601 128.8 601C86 601 43 601 21.5 601L0 601Z" fill="#006afc"></path><path d="M0 549L21.5 551.2C43 553.3 86 557.7 128.8 557C171.7 556.3 214.3 550.7 257.2 549.3C300 548 343 551 385.8 547C428.7 543 471.3 532 514.2 527.7C557 523.3 600 525.7 642.8 529C685.7 532.3 728.3 536.7 771.2 541.5C814 546.3 857 551.7 878.5 554.3L900 557L900 601L878.5 601C857 601 814 601 771.2 601C728.3 601 685.7 601 642.8 601C600 601 557 601 514.2 601C471.3 601 428.7 601 385.8 601C343 601 300 601 257.2 601C214.3 601 171.7 601 128.8 601C86 601 43 601 21.5 601L0 601Z" fill="#0a42f3"></path></svg>