<svg id="visual" viewBox="0 0 900 600" width="900" height="600" xmlns="http://www.w3.org/2000/svg" xmlns:xlink="http://www.w3.org/1999/xlink" version="1.1"><rect x="0" y="0" width="900" height="600" fill="#ffffff"></rect><defs><linearGradient id="grad1_0" x1="33.3%" y1="0%" x2="100%" y2="100%"><stop offset="20%" stop-color="#6b9cdf" stop-opacity="1"></stop><stop offset="80%" stop-color="#6b9cdf" stop-opacity="1"></stop></linearGradient></defs><defs><linearGradient id="grad1_1" x1="33.3%" y1="0%" x2="100%" y2="100%"><stop offset="20%" stop-color="#6b9cdf" stop-opacity="1"></stop><stop offset="80%" stop-color="#a1bcea" stop-opacity="1"></stop></linearGradient></defs><defs><linearGradient id="grad1_2" x1="33.3%" y1="0%" x2="100%" y2="100%"><stop offset="20%" stop-color="#d1ddf5" stop-opacity="1"></stop><stop offset="80%" stop-color="#a1bcea" stop-opacity="1"></stop></linearGradient></defs><defs><linearGradient id="grad1_3" x1="33.3%" y1="0%" x2="100%" y2="100%"><stop offset="20%" stop-color="#d1ddf5" stop-opacity="1"></stop><stop offset="80%" stop-color="#ffffff" stop-opacity="1"></stop></linearGradient></defs><defs><linearGradient id="grad2_0" x1="0%" y1="0%" x2="66.7%" y2="100%"><stop offset="20%" stop-color="#6b9cdf" stop-opacity="1"></stop><stop offset="80%" stop-color="#6b9cdf" stop-opacity="1"></stop></linearGradient></defs><defs><linearGradient id="grad2_1" x1="0%" y1="0%" x2="66.7%" y2="100%"><stop offset="20%" stop-color="#a1bcea" stop-opacity="1"></stop><stop offset="80%" stop-color="#6b9cdf" stop-opacity="1"></stop></linearGradient></defs><defs><linearGradient id="grad2_2" x1="0%" y1="0%" x2="66.7%" y2="100%"><stop offset="20%" stop-color="#a1bcea" stop-opacity="1"></stop><stop offset="80%" stop-color="#d1ddf5" stop-opacity="1"></stop></linearGradient></defs><defs><linearGradient id="grad2_3" x1="0%" y1="0%" x2="66.7%" y2="100%"><stop offset="20%" stop-color="#ffffff" stop-opacity="1"></stop><stop offset="80%" stop-color="#d1ddf5" stop-opacity="1"></stop></linearGradient></defs><g transform="translate(900, 0)"><path d="M0 432.7C-33.4 372 -66.9 311.3 -124 299.3C-181.1 287.4 -261.9 324.2 -305.9 305.9C-350 287.7 -357.3 214.4 -372.3 154.2C-387.3 94.1 -410 47 -432.7 0L0 0Z" fill="#e8eefa"></path><path d="M0 324.5C-25.1 279 -50.2 233.5 -93 224.5C-135.8 215.5 -196.4 243.1 -229.5 229.5C-262.5 215.8 -268 160.8 -279.2 115.7C-290.5 70.5 -307.5 35.3 -324.5 0L0 0Z" fill="#b9ccef"></path><path d="M0 216.3C-16.7 186 -33.4 155.6 -62 149.7C-90.6 143.7 -130.9 162.1 -153 153C-175 143.8 -178.7 107.2 -186.2 77.1C-193.7 47 -205 23.5 -216.3 0L0 0Z" fill="#87ace5"></path><path d="M0 108.2C-8.4 93 -16.7 77.8 -31 74.8C-45.3 71.8 -65.5 81 -76.5 76.5C-87.5 71.9 -89.3 53.6 -93.1 38.6C-96.8 23.5 -102.5 11.8 -108.2 0L0 0Z" fill="#6b9cdf"></path></g><g transform="translate(0, 600)"><path d="M0 -432.7C63 -433.7 126 -434.8 165.6 -399.7C205.1 -364.7 221.2 -293.5 246.8 -246.8C272.4 -200.1 307.4 -177.9 340 -140.8C372.6 -103.8 402.6 -51.9 432.7 0L0 0Z" fill="#e8eefa"></path><path d="M0 -324.5C47.3 -325.3 94.5 -326.1 124.2 -299.8C153.8 -273.5 165.9 -220.1 185.1 -185.1C204.3 -150.1 230.6 -133.4 255 -105.6C279.4 -77.8 302 -38.9 324.5 0L0 0Z" fill="#b9ccef"></path><path d="M0 -216.3C31.5 -216.9 63 -217.4 82.8 -199.9C102.6 -182.3 110.6 -146.7 123.4 -123.4C136.2 -100 153.7 -88.9 170 -70.4C186.3 -51.9 201.3 -25.9 216.3 0L0 0Z" fill="#87ace5"></path><path d="M0 -108.2C15.8 -108.4 31.5 -108.7 41.4 -99.9C51.3 -91.2 55.3 -73.4 61.7 -61.7C68.1 -50 76.9 -44.5 85 -35.2C93.1 -25.9 100.7 -13 108.2 0L0 0Z" fill="#6b9cdf"></path></g></svg>